<svg xmlns="http://www.w3.org/2000/svg" width="158.926" height="158.926" viewBox="0 0 158.926 158.926">
  <path id="Path_63" data-name="Path 63" d="M112.049,8.233,86.9,1.481a28.65,28.65,0,0,0-14.828-.009L46.923,8.2A28.644,28.644,0,0,0,34.076,15.6L15.655,34A28.637,28.637,0,0,0,8.233,46.841L1.48,71.987a28.639,28.639,0,0,0-.008,14.828L8.2,111.968A28.651,28.651,0,0,0,15.6,124.815L34,143.236a28.643,28.643,0,0,0,12.838,7.423l25.144,6.753a28.643,28.643,0,0,0,14.829.008l25.153-6.724a28.647,28.647,0,0,0,12.847-7.407l18.421-18.4a28.645,28.645,0,0,0,7.421-12.838L157.411,86.9a28.665,28.665,0,0,0,.008-14.829l-6.724-25.153a28.655,28.655,0,0,0-7.408-12.847l-18.4-18.421a28.656,28.656,0,0,0-12.838-7.421" transform="translate(0.018 0.017)" fill="transparent" stroke="#413960" stroke-width="1"/>
</svg>
